<?xml version="1.0" encoding="UTF-8" ?>
<!DOCTYPE svg PUBLIC "-//W3C//DTD SVG 1.1//EN" "http://www.w3.org/Graphics/SVG/1.1/DTD/svg11.dtd">
<svg width="200px" height="40px" viewBox="0 0 1632 260" version="1.1" xmlns="http://www.w3.org/2000/svg">
<g id="#000000ff">
</g>
<g id="#ee3a43ff">
<path fill="#FFF" opacity="1.00" d=" M 534.08 29.17 C 546.62 23.12 561.39 22.56 574.74 26.07 C 584.24 28.61 592.77 34.77 597.67 43.35 C 604.32 54.60 605.11 68.06 605.04 80.81 C 595.01 80.83 584.98 80.83 574.95 80.81 C 574.77 73.32 575.84 65.03 571.56 58.41 C 568.22 53.31 561.53 52.64 555.98 53.31 C 551.22 53.65 546.91 56.94 545.35 61.45 C 542.69 68.87 543.30 77.14 545.62 84.57 C 548.96 94.73 556.47 102.73 564.04 109.97 C 575.50 120.80 588.09 130.97 596.12 144.79 C 604.95 159.42 606.98 177.46 603.83 194.07 C 601.81 204.68 596.47 215.04 587.44 221.30 C 576.06 229.27 561.35 230.62 547.92 228.74 C 535.46 227.09 523.41 219.95 517.53 208.60 C 510.48 195.73 510.68 180.57 511.08 166.32 C 521.04 166.32 531.01 166.33 540.97 166.32 C 541.53 174.59 539.91 183.20 542.67 191.20 C 544.44 196.78 550.30 200.28 556.04 199.93 C 561.29 200.38 567.33 198.97 570.32 194.24 C 574.37 187.52 573.93 179.13 572.28 171.74 C 569.73 160.86 562.12 152.19 554.35 144.57 C 542.66 133.35 529.59 123.06 521.15 108.97 C 511.96 93.90 509.96 75.23 513.41 58.13 C 515.78 46.16 522.90 34.67 534.08 29.17 Z" />
<path fill="#FFF" opacity="1.00" d=" M 755.60 24.90 C 766.24 23.01 777.41 23.78 787.60 27.45 C 797.71 31.07 805.98 39.19 810.07 49.09 C 813.93 57.88 814.75 67.59 814.81 77.08 C 814.83 105.38 814.81 133.68 814.82 161.98 C 814.61 174.59 815.85 187.58 811.81 199.76 C 808.88 209.27 802.67 217.85 794.00 222.88 C 782.54 229.49 768.67 230.59 755.81 228.62 C 743.95 226.79 732.39 220.29 726.29 209.71 C 721.10 201.13 719.09 190.98 718.94 181.05 C 718.93 144.04 718.96 107.02 718.92 70.00 C 719.37 58.41 722.77 46.43 730.71 37.70 C 737.08 30.54 746.25 26.41 755.60 24.90 M 766.12 53.13 C 762.38 53.16 758.42 54.05 755.69 56.76 C 751.62 60.63 750.76 66.59 750.61 71.93 C 750.64 108.29 750.58 144.66 750.64 181.02 C 750.68 187.73 752.28 196.06 759.20 198.98 C 765.90 201.68 775.19 200.97 779.65 194.63 C 783.70 188.56 782.89 180.94 782.95 174.01 C 782.96 141.33 782.93 108.65 782.96 75.97 C 782.99 69.65 783.01 62.49 778.60 57.45 C 775.56 53.85 770.59 52.96 766.12 53.13 Z" />
<path fill="#FFF" opacity="1.00" d=" M 52.48 26.35 C 84.97 26.31 117.45 26.35 149.94 26.33 C 150.09 35.96 150.19 45.60 149.88 55.22 C 138.94 55.22 128.00 55.23 117.06 55.22 C 117.03 112.42 117.08 169.62 117.04 226.82 C 106.50 226.85 95.96 226.86 85.42 226.81 C 85.43 169.62 85.43 112.43 85.42 55.23 C 74.49 55.25 63.56 55.17 52.63 55.28 C 52.26 45.64 52.55 35.99 52.48 26.35 Z" />
<path fill="#FFF" opacity="1.00" d=" M 163.52 26.37 C 180.70 26.31 197.89 26.32 215.07 26.35 C 226.91 26.92 239.84 29.72 247.97 39.05 C 256.38 48.55 257.84 61.86 258.04 74.03 C 257.95 86.18 258.98 98.80 254.50 110.37 C 251.56 118.41 245.49 125.20 237.79 128.95 C 243.70 131.73 249.03 136.00 252.17 141.82 C 257.38 150.92 258.11 161.68 258.42 171.93 C 258.50 184.63 258.35 197.33 258.50 210.03 C 258.54 215.75 259.57 221.45 261.70 226.77 C 250.89 226.89 240.07 226.87 229.26 226.78 C 225.21 214.27 226.86 200.93 226.50 188.01 C 226.18 178.71 227.30 169.29 225.54 160.09 C 224.56 154.59 221.29 149.10 215.85 147.08 C 209.28 144.78 202.20 145.55 195.38 145.41 C 195.32 172.54 195.38 199.68 195.35 226.82 C 184.72 226.85 174.10 226.87 163.48 226.81 C 163.53 159.99 163.45 93.18 163.52 26.37 M 195.35 55.24 C 195.37 75.62 195.33 96.01 195.37 116.40 C 200.28 116.36 205.20 116.50 210.11 116.36 C 215.26 116.22 220.64 113.95 223.27 109.31 C 226.97 102.88 226.22 95.16 226.32 88.03 C 226.12 80.34 227.01 72.44 224.89 64.94 C 223.55 59.93 219.18 55.78 213.90 55.39 C 207.72 55.05 201.53 55.29 195.35 55.24 Z" />
<path fill="#FFF" opacity="1.00" d=" M 301.69 26.36 C 317.11 26.29 332.53 26.36 347.96 26.32 C 358.79 93.14 369.41 159.98 380.11 226.82 C 369.43 226.87 358.75 226.82 348.08 226.84 C 346.23 214.79 344.50 202.73 342.70 190.67 C 329.88 190.62 317.06 190.64 304.24 190.66 C 302.44 202.72 300.62 214.78 298.82 226.85 C 289.09 226.83 279.36 226.83 269.63 226.85 C 280.27 160.01 291.05 93.20 301.69 26.36 M 308.34 163.32 C 318.33 163.32 328.32 163.34 338.31 163.31 C 333.43 129.76 328.07 96.28 323.43 62.69 C 318.22 96.21 313.25 129.76 308.34 163.32 Z" />
<path fill="#FFF" opacity="1.00" d=" M 393.51 26.36 C 406.77 26.31 420.03 26.33 433.29 26.35 C 443.07 62.55 452.83 98.75 462.58 134.96 C 463.34 137.47 463.60 140.28 465.32 142.38 C 465.66 103.71 465.35 65.03 465.48 26.36 C 474.88 26.31 484.29 26.33 493.70 26.35 C 493.75 93.17 493.69 160.00 493.72 226.82 C 482.83 226.85 471.95 226.86 461.06 226.81 C 448.24 178.73 434.86 130.79 422.31 82.65 C 421.74 130.69 422.25 178.76 422.05 226.81 C 412.52 226.85 403.00 226.87 393.48 226.80 C 393.52 159.99 393.45 93.17 393.51 26.36 Z" />
<path fill="#FFF" opacity="1.00" d=" M 622.52 26.37 C 650.35 26.27 678.18 26.40 706.01 26.30 C 706.15 35.95 706.38 45.62 705.88 55.26 C 688.70 55.19 671.53 55.23 654.35 55.24 C 654.37 75.26 654.32 95.29 654.38 115.32 C 667.93 115.36 681.49 115.26 695.04 115.37 C 694.99 125.03 695.21 134.69 694.91 144.34 C 681.40 144.36 667.88 144.33 654.36 144.36 C 654.33 171.84 654.37 199.33 654.35 226.82 C 643.72 226.85 633.10 226.86 622.48 226.81 C 622.53 160.00 622.46 93.18 622.52 26.37 Z" />
<path fill="#FFF" opacity="1.00" d=" M 834.35 26.35 C 851.59 26.34 868.83 26.30 886.07 26.36 C 895.82 26.92 906.04 28.79 914.05 34.75 C 920.53 39.51 924.63 46.87 926.58 54.57 C 929.46 65.81 928.58 77.51 928.68 88.99 C 928.71 100.42 926.45 112.70 918.54 121.43 C 915.86 124.65 912.24 126.84 908.70 128.98 C 915.73 132.34 921.70 138.01 924.65 145.32 C 930.61 159.44 928.72 175.09 929.06 190.01 C 929.38 202.29 927.74 215.15 932.45 226.84 C 921.64 226.83 910.82 226.86 900.01 226.82 C 896.61 217.24 897.53 206.97 897.33 197.00 C 897.17 186.32 897.70 175.63 896.96 164.97 C 896.50 158.45 894.35 151.08 888.17 147.81 C 881.29 144.55 873.43 145.61 866.06 145.42 C 866.03 172.55 866.07 199.69 866.05 226.82 C 855.47 226.85 844.90 226.85 834.33 226.82 C 834.35 160.00 834.30 93.17 834.35 26.35 M 866.06 55.22 C 866.05 75.61 866.04 96.01 866.07 116.40 C 871.08 116.36 876.09 116.50 881.10 116.35 C 886.23 116.14 891.65 113.78 894.14 109.05 C 898.04 102.05 896.71 93.74 896.95 86.07 C 896.71 78.40 897.89 70.35 894.91 63.05 C 893.16 58.66 888.78 55.54 884.06 55.36 C 878.07 55.08 872.06 55.29 866.06 55.22 Z" />
<path fill="#FFF" opacity="1.00" d=" M 948.49 26.34 C 963.11 26.32 977.74 26.33 992.36 26.34 C 1000.18 73.36 1007.53 120.47 1015.53 167.45 C 1022.68 120.44 1029.77 73.41 1036.80 26.38 C 1051.50 26.27 1066.20 26.37 1080.91 26.33 C 1080.99 93.16 1080.94 160.00 1080.93 226.84 C 1070.94 226.83 1060.96 226.86 1050.97 226.82 C 1050.90 192.88 1050.96 158.94 1050.94 125.01 C 1050.78 111.87 1051.30 98.72 1050.60 85.60 C 1043.87 132.72 1036.41 179.74 1029.41 226.83 C 1019.38 226.84 1009.35 226.86 999.33 226.81 C 992.93 188.21 986.55 149.61 980.14 111.01 C 978.87 102.95 977.29 94.93 976.41 86.82 C 975.64 106.86 976.26 126.94 976.06 146.99 C 976.04 173.60 976.09 200.21 976.04 226.82 C 966.85 226.85 957.66 226.86 948.47 226.81 C 948.50 159.99 948.47 93.17 948.49 26.34 Z" />
<path fill="#FFF" opacity="1.00" d=" M 1127.04 26.33 C 1142.46 26.35 1157.89 26.29 1173.32 26.36 C 1183.98 93.19 1194.70 160.02 1205.42 226.83 C 1194.72 226.83 1184.01 226.87 1173.31 226.81 C 1171.54 214.76 1169.76 202.70 1167.96 190.66 C 1155.17 190.63 1142.39 190.66 1129.60 190.64 C 1127.58 202.68 1126.01 214.79 1124.06 226.84 C 1114.33 226.82 1104.61 226.87 1094.90 226.82 C 1105.60 159.99 1116.24 93.15 1127.04 26.33 M 1133.50 163.31 C 1143.52 163.33 1153.55 163.33 1163.57 163.31 C 1158.63 129.99 1153.64 96.68 1148.62 63.38 C 1143.32 96.65 1138.64 130.02 1133.50 163.31 Z" />
<path fill="#FFF" opacity="1.00" d=" M 1219.11 26.35 C 1246.96 26.32 1274.81 26.33 1302.66 26.34 C 1302.58 36.00 1302.93 45.66 1302.48 55.30 C 1285.29 55.14 1268.09 55.25 1250.90 55.24 C 1250.81 75.26 1250.87 95.28 1250.87 115.30 C 1264.42 115.37 1277.97 115.28 1291.52 115.35 C 1291.54 125.01 1291.58 134.67 1291.49 144.34 C 1277.95 144.38 1264.41 144.30 1250.87 144.38 C 1250.85 171.86 1250.87 199.35 1250.86 226.83 C 1240.26 226.84 1229.67 226.84 1219.09 226.84 C 1219.10 160.01 1219.04 93.18 1219.11 26.35 Z" />
<path fill="#FFF" opacity="1.00" d=" M 1318.06 26.33 C 1328.61 26.35 1339.15 26.31 1349.70 26.35 C 1349.77 83.58 1349.69 140.81 1349.75 198.04 C 1367.00 198.32 1384.25 198.08 1401.51 198.16 C 1401.53 207.72 1401.53 217.28 1401.51 226.83 C 1373.66 226.84 1345.81 226.86 1317.97 226.82 C 1318.00 159.99 1317.81 93.16 1318.06 26.33 Z" />
<path fill="#FFF" opacity="1.00" d=" M 1415.48 26.35 C 1425.97 26.30 1436.45 26.36 1446.95 26.32 C 1447.19 93.15 1447.03 159.99 1447.03 226.82 C 1436.50 226.84 1425.98 226.87 1415.46 226.81 C 1415.49 159.99 1415.46 93.17 1415.48 26.35 Z" />
<path fill="#FFF" opacity="1.00" d=" M 1464.55 26.47 C 1475.51 26.17 1486.48 26.39 1497.44 26.35 C 1505.37 50.86 1513.24 75.39 1521.12 99.91 C 1529.24 75.40 1537.28 50.87 1545.37 26.35 C 1555.19 26.34 1565.00 26.29 1574.82 26.37 C 1564.13 58.32 1553.20 90.19 1542.47 122.12 C 1541.51 124.51 1543.11 126.85 1543.73 129.13 C 1554.86 161.69 1566.05 194.24 1577.08 226.84 C 1565.91 226.82 1554.75 226.89 1543.59 226.80 C 1536.32 204.23 1528.94 181.69 1521.64 159.13 C 1520.37 155.64 1519.68 151.92 1517.82 148.68 C 1509.08 174.67 1500.68 200.78 1492.06 226.82 C 1482.13 226.83 1472.20 226.91 1462.28 226.77 C 1474.05 192.47 1485.69 158.13 1497.51 123.85 C 1486.56 91.37 1475.57 58.92 1464.55 26.47 Z" />
</g>
</svg>
